<?xml version="1.0" encoding="utf-8"?>
<!-- Generator: Adobe Illustrator 20.1.0, SVG Export Plug-In . SVG Version: 6.00 Build 0)  -->
<svg version="1.1" id="圖層_1" xmlns="http://www.w3.org/2000/svg" xmlns:xlink="http://www.w3.org/1999/xlink" x="0px" y="0px"
	 viewBox="0 0 174.934 61.833" style="enable-background:new 0 0 174.934 61.833;" xml:space="preserve">
<style type="text/css">
	.st0{fill:#F7F8F8;}
	.st1{fill:#F5C51D;}
</style>
<g>
	<g>
		<polygon class="st0" points="130.385,18.091 132.717,18.091 132.717,9.667 141.378,9.667 141.378,18.091 143.71,18.091 
			143.71,7.335 130.385,7.335 130.385,7.335 		"/>
		<rect x="148.978" y="7.335" class="st0" width="5.024" height="2.332"/>
		<rect x="146.474" y="11.42" class="st0" width="10.033" height="2.332"/>
		<rect x="146.474" y="15.794" class="st0" width="10.033" height="2.332"/>
		<path class="st0" d="M156.507,24.542h-10.033v7.564v2.332h2.609h4.816h2.609l0,0v-2.332l0,0V24.542L156.507,24.542z
			 M149.082,32.107v-5.232h4.816v5.232H149.082z"/>
		<rect x="146.474" y="20.167" class="st0" width="10.033" height="2.332"/>
		<g>
			<rect x="121.733" y="7.335" class="st0" width="5.024" height="2.332"/>
			<rect x="119.228" y="11.42" class="st0" width="10.033" height="2.332"/>
			<rect x="119.228" y="15.794" class="st0" width="10.033" height="2.332"/>
			<path class="st0" d="M129.261,24.542h-10.033v7.564v2.332h2.609h4.816h2.609l0,0v-2.332l0,0V24.542L129.261,24.542z
				 M121.837,32.107v-5.232h4.816v5.232H121.837z"/>
			<rect x="119.228" y="20.167" class="st0" width="10.033" height="2.332"/>
		</g>
		<polygon class="st0" points="172.054,20.167 169.295,20.167 169.295,7.333 166.963,7.333 166.963,20.167 157.88,20.167 
			157.88,22.499 166.963,22.499 166.963,34.439 169.295,34.439 169.295,22.499 172.054,22.499 		"/>
		<path class="st0" d="M143.71,24.421v-4.253h-13.326v4.253l5.148,5.031l-5.169,4.987h3.168l3.516-3.445l3.593,3.445h3.072
			l-5.147-4.967L143.71,24.421z M132.717,22.499h8.661v1.346l-4.329,4.188l-4.332-4.188V22.499z"/>
	</g>
	<g>
		<path class="st0" d="M107.465,9.686l1.423-2.289h-2.332l-2.795,4.497l-1.981,3.191v7.347v0.068h2.172l-5.084,8.185V20.167h-5.854
			v-2.92h7.632v-2.332h-1.778V7.381h-2.332v7.534h-3.522V7.333h-2.332v27.106h2.332v-11.94h3.522v11.939h2.332l3.239-5.215h9.165
			v5.215h2.332v-5.215h2.838v-2.332h-2.838v-4.392h2.838v-0.068V9.686H107.465z M110.462,12.018l-1.8,2.897h-4.551v-2.897H110.462z
			 M112.793,12.018h1.303l-0.001,2.897h-3.1L112.793,12.018z M104.112,17.247h3.102l-1.814,2.92h-1.288V17.247z M111.271,26.891
			h-7.716l2.728-4.392h4.988V26.891z M107.732,20.167l1.814-2.92h4.547v2.92H107.732z"/>
		<path class="st0" d="M85.538,18.126V7.333H65.847h-0.001v10.793h0.001H85.538z M68.179,9.666h15.027v6.128H68.179V9.666z"/>
		<path class="st0" d="M63.451,20.48v2.02v9.607v2.332h2.332h6.595h2.332v-2.332v-9.607v-2.02v-0.313H63.451V20.48z M72.378,32.107
			h-6.595v-9.607h6.595V32.107z"/>
		<path class="st0" d="M76.674,20.48v2.02v9.607v2.332h2.332h6.595h2.332v-2.332v-9.607v-2.02v-0.313H76.674V20.48z M85.601,32.107
			h-6.595v-9.607h6.595V32.107z"/>
	</g>
	<g>
		<polygon class="st0" points="7.325,7.333 7.325,9.666 18.453,9.666 18.453,32.107 15.299,32.107 15.299,34.439 18.453,34.439 
			20.785,34.439 20.785,32.107 20.785,9.666 31.808,9.666 31.808,7.333 		"/>
		<polygon class="st0" points="35.426,9.666 55.214,9.666 46.553,15.748 46.553,20.167 34.555,20.167 34.555,22.499 46.553,22.499 
			46.553,32.107 43.383,32.107 43.383,34.439 46.553,34.439 48.886,34.439 48.886,32.107 48.886,22.499 60.306,22.499 
			60.306,20.167 48.886,20.167 48.886,16.946 59.359,9.666 59.359,7.333 35.426,7.333 		"/>
	</g>
</g>
<g>
	<path class="st1" d="M60.768,49.246c-0.032,0.682-0.142,1.387-0.331,2.116c-0.276,0.948-0.744,1.881-1.406,2.798l-0.921-0.835
		c0.646-0.729,1.087-1.493,1.323-2.292c0.197-0.823,0.295-1.587,0.295-2.292v-3.633h3.816c-0.229-0.501-0.469-0.96-0.721-1.375
		l1.099-0.365c0.378,0.549,0.705,1.129,0.981,1.74h3.32v4.138H60.768z M67.113,46.12h-6.321v2.116h6.321V46.12z"/>
	<path class="st1" d="M115.374,43.463c0.205,0.251,0.398,0.525,0.579,0.823h4.596v0.964h-10.432v-0.964h4.619
		c-0.165-0.227-0.35-0.443-0.555-0.647L115.374,43.463z M113.117,45.344c0.26,0.4,0.496,0.874,0.709,1.422h2.811
		c0.291-0.439,0.547-0.913,0.768-1.422l1.063,0.364c-0.221,0.392-0.457,0.745-0.709,1.058h2.328v6.242
		c0,0.368-0.099,0.651-0.296,0.846c-0.158,0.172-0.382,0.258-0.673,0.258h-1.016l-0.236-1.011l0.839,0.047
		c0.213-0.016,0.319-0.153,0.319-0.411v-3.08h-1.937c-0.355,0-0.638-0.067-0.851-0.2c-0.205-0.125-0.307-0.333-0.307-0.623v-1.152
		h-1.276c-0.063,0.572-0.213,1.031-0.449,1.375c-0.252,0.392-0.831,0.76-1.737,1.105l-0.685-0.823
		c0.701-0.212,1.177-0.439,1.43-0.682c0.236-0.227,0.39-0.552,0.461-0.976h-2.032v6.571h-1.063v-7.488h2.15
		c-0.165-0.337-0.374-0.689-0.626-1.058L113.117,45.344z M112.846,50.117h5.021v2.845h-5.021V50.117z M116.851,52.045v-1.011h-2.989
		v1.011H116.851z M116.945,47.683v0.87c0,0.188,0.138,0.282,0.414,0.282h1.666v-1.152H116.945z"/>
	<path class="st1" d="M130.839,43.463h1.063v1.834h1.063v-1.834h1.052v1.834h0.827c0.26-0.415,0.524-0.952,0.792-1.611l1.11,0.411
		c-0.22,0.47-0.445,0.87-0.674,1.199h1.737v0.964h-3.272l0.827,0.27c-0.165,0.274-0.343,0.521-0.531,0.741h2.564v0.917h-4.395v0.646
		h4.158v0.87h-4.158v0.647h4.808v0.917h-3.816c0.528,0.47,1.004,0.799,1.43,0.987c0.559,0.267,1.339,0.517,2.339,0.752l-0.602,0.964
		c-1.181-0.345-2.056-0.702-2.622-1.07c-0.528-0.345-1.04-0.823-1.536-1.434v2.692h-1.099v-2.715
		c-0.315,0.4-0.665,0.737-1.051,1.011c-0.693,0.509-1.697,1.015-3.012,1.517l-0.556-0.917c1.347-0.423,2.3-0.811,2.859-1.164
		c0.299-0.172,0.571-0.38,0.815-0.623h-3.769v-0.917h4.714v-0.647h-4.064v-0.87h4.064v-0.646h-4.336v-0.917h2.647
		c-0.126-0.235-0.272-0.482-0.437-0.741l0.756-0.27h-3.343v-0.964h1.701c-0.142-0.384-0.323-0.799-0.544-1.246l1.063-0.365
		c0.22,0.447,0.421,0.984,0.602,1.611h0.827V43.463z M131.323,47.272h2.28c0.228-0.313,0.429-0.651,0.602-1.011h-3.355
		C131.024,46.551,131.181,46.888,131.323,47.272z"/>
	<path class="st1" d="M146.162,43.498l0.921,0.4v-0.023h7.939v0.823h-2.54v0.6h2.209v2.339h-7.479v-2.339h2.221v-0.6h-2.351v-0.611
		c-0.213,0.752-0.429,1.411-0.65,1.975v8.194h-1.016v-6.183c-0.252,0.431-0.528,0.854-0.827,1.27l-0.366-1.293
		c0.394-0.627,0.74-1.274,1.04-1.94C145.571,45.504,145.87,44.634,146.162,43.498z M149.753,52.55l0.555,0.741
		c-0.496,0.266-0.941,0.459-1.335,0.576c-0.449,0.141-1.02,0.282-1.713,0.423l-0.508-0.917c0.669-0.094,1.256-0.212,1.76-0.353
		C148.977,52.887,149.391,52.73,149.753,52.55z M147.591,48.048h6.829v4.455h-6.829V48.048z M149.434,46.86v-0.788h-1.241v0.788
		H149.434z M148.512,49.341h4.986v-0.506h-4.986V49.341z M148.512,50.528h4.986v-0.506h-4.986V50.528z M153.498,51.727v-0.506
		h-4.986v0.506H153.498z M151.561,45.297v-0.6h-1.205v0.6H151.561z M151.561,46.86v-0.788h-1.205v0.788H151.561z M152.116,52.597
		c0.953,0.165,1.949,0.423,2.989,0.776l-0.366,0.964c-0.969-0.408-1.985-0.713-3.048-0.917L152.116,52.597z M153.723,46.86v-0.788
		h-1.241v0.788H153.723z"/>
	<path class="st1" d="M163.788,43.463l0.969,0.412c-0.307,0.964-0.63,1.779-0.969,2.445v7.841h-1.063v-6.137
		c-0.284,0.392-0.591,0.784-0.921,1.176l-0.378-1.293c0.488-0.611,0.914-1.242,1.276-1.893
		C163.079,45.426,163.442,44.576,163.788,43.463z M164.662,44.427h2.836c0.031-0.321,0.055-0.643,0.071-0.964l1.205,0.129
		c-0.024,0.29-0.055,0.568-0.095,0.835h3.178v0.917h-3.308c-0.039,0.29-0.086,0.564-0.142,0.823h2.942v6.619h0.839v0.917h-7.939
		v-0.917h0.969v-6.619h2.055c0.047-0.266,0.087-0.541,0.118-0.823h-2.729V44.427z M166.281,47.871h4.005v-0.788h-4.005V47.871z
		 M166.281,49.47h4.005v-0.776h-4.005V49.47z M166.281,51.128h4.005v-0.823h-4.005V51.128z M166.281,52.785h4.005V51.95h-4.005
		V52.785z"/>
	<g>
		<path class="st1" d="M15.106,45.802v-2.257h-1.063v2.257h-1.796v1.058h1.784c-0.032,1.528-0.197,2.692-0.496,3.492
			c-0.386,1.136-1.048,2.191-1.985,3.162l0.874,0.776c1.047-1.223,1.752-2.429,2.115-3.621c0.331-1.027,0.516-2.296,0.555-3.809h1.3
			c-0.016,3.112-0.055,4.949-0.118,5.514c-0.04,0.455-0.229,0.682-0.567,0.682c-0.378,0-0.748-0.031-1.11-0.094l0.189,1.199
			c0.346,0.031,0.654,0.047,0.921,0.047c0.591,0,0.996-0.114,1.217-0.341c0.197-0.172,0.331-0.541,0.402-1.105
			c0.086-0.729,0.13-3.049,0.13-6.959H15.106z"/>
		<path class="st1" d="M7.191,53.872c1.943-0.453,3.673-0.956,5.186-1.511v-0.964c-0.15,0.055-0.303,0.106-0.461,0.153v-7.547H7.675
			v8.699c-0.157,0.034-0.322,0.068-0.484,0.102V53.872z M8.738,44.932h2.127v1.646H8.738V44.932z M8.738,47.495h2.127v1.752H8.738
			V47.495z M8.738,50.163h2.127v1.716c-0.67,0.204-1.378,0.396-2.127,0.576V50.163z"/>
	</g>
	<path class="st1" d="M29.969,45.802v-2.34h-1.205v2.34H25.06v1.14h3.668c-0.094,1.387-0.39,2.555-0.886,3.503
		c-0.518,0.949-1.445,1.758-2.781,2.43v1.245l0.052,0.087c1.67-0.674,2.871-1.634,3.603-2.88c0.669-1.144,1.071-2.606,1.205-4.385
		h3.367c-0.024,2.814-0.094,4.44-0.213,4.879c-0.102,0.643-0.386,0.964-0.851,0.964c-0.685,0-1.363-0.047-2.032-0.141l0.319,1.282
		c0.347,0.031,0.917,0.047,1.713,0.047c0.921,0,1.516-0.341,1.784-1.023c0.268-0.705,0.441-3.088,0.52-7.148H29.969z"/>
	<path class="st1" d="M42.881,54.254h1.016v-0.423h5.588v0.423h1.016v-3.68h-7.62V54.254z M43.897,51.586h5.588v1.234h-5.588V51.586
		z"/>
	<path class="st1" d="M51.693,49.608c-1.518-0.169-2.756-0.399-3.707-0.691c0.795-0.423,1.508-1.019,2.138-1.787v-0.776h-4.95
		c0.11-0.165,0.224-0.349,0.343-0.552l-0.626-0.365h5.706v1.74h1.097v-1.449h0.002v-1.302h-4.489
		c-0.142-0.353-0.292-0.674-0.449-0.964l-1.241,0.176c0.181,0.251,0.343,0.514,0.485,0.788h-4.407v2.751h1.111v-1.74h1.843
		c-0.339,0.557-0.685,1.019-1.04,1.387c-0.488,0.517-1.004,0.909-1.547,1.176l0.555,0.917c0.599-0.392,1.111-0.792,1.536-1.199
		c0.465,0.439,0.984,0.827,1.56,1.164c-0.988,0.275-2.336,0.537-4.035,0.784v1.063c2.203-0.412,4.085-0.852,5.217-1.271
		c1.331,0.522,3.016,0.94,4.901,1.222V49.608z M44.855,47.272h3.828c-0.638,0.533-1.264,0.937-1.878,1.211
		C46.055,48.153,45.406,47.75,44.855,47.272z"/>
	<path class="st1" d="M84.456,51.022c0.181-0.298,0.35-0.611,0.508-0.94c0.685-1.418,1.04-3.335,1.063-5.749H81.42V43.78h-5.73
		v1.011h0.792v6.924c-0.255,0.049-0.523,0.09-0.798,0.127v1.281c1.345-0.349,2.807-0.781,3.846-1.125v2.292h1.052v-9.499h0.65v0.646
		h3.698c-0.11,1.654-0.406,2.974-0.886,3.962c-0.063,0.141-0.134,0.286-0.213,0.435c-0.488-1.035-0.894-2.332-1.217-3.891
		l-1.016,0.541c0.394,1.724,0.898,3.213,1.512,4.467c-0.559,0.752-1.276,1.485-2.15,2.198l0.685,1.058
		c0.811-0.643,1.512-1.356,2.103-2.14c0.496,0.737,1.15,1.434,1.961,2.092l0.732-1.058C85.637,52.523,84.976,51.829,84.456,51.022z
		 M79.529,50.928c-0.646,0.22-1.308,0.408-1.985,0.564v-1.881h1.985V50.928z M79.529,48.647h-1.985v-1.422h1.985V48.647z
		 M79.529,46.261h-1.985v-1.469h1.985V46.261z"/>
	<g>
		<path class="st1" d="M95.632,46.355c-0.417,0.839-0.85,1.477-1.3,1.916c-0.33,0.376-0.705,0.744-1.122,1.102v1.64
			c0.4-0.33,0.775-0.664,1.122-1.002v4.15h1.111V48.8c0.401-0.541,0.788-1.203,1.158-1.987L95.632,46.355z"/>
		<path class="st1" d="M102.047,50.117v-0.694h1.241v-0.87h-6.971v0.87h4.667v0.694h-4.986v0.964h4.986v1.834
			c0,0.188-0.138,0.282-0.413,0.282c-0.355,0-0.803-0.031-1.347-0.094l0.236,1.105h1.382c0.449,0,0.756-0.086,0.921-0.259
			c0.189-0.165,0.284-0.447,0.284-0.846V51.08h1.252v-0.964H102.047z"/>
		<path class="st1" d="M97.191,51.633c0.355,0.439,0.681,0.945,0.981,1.517l1.004-0.458c-0.268-0.494-0.591-0.952-0.969-1.375
			L97.191,51.633z"/>
		<path class="st1" d="M93.21,47.13c1.159-0.816,2.606-2.019,3.343-2.939l-0.792-0.694c-0.758,0.851-1.612,1.574-2.551,2.184V47.13z
			"/>
		<path class="st1" d="M103.016,43.921h-6.19v3.95h6.19V43.921z M101.953,47.036h-4.064v-0.729h4.064V47.036z M101.953,45.52h-4.064
			v-0.776h4.064V45.52z"/>
	</g>
</g>
</svg>
