<?xml version="1.0" encoding="utf-8"?>
<!-- Generator: Adobe Illustrator 20.1.0, SVG Export Plug-In . SVG Version: 6.00 Build 0)  -->
<svg version="1.1" id="圖層_1" xmlns="http://www.w3.org/2000/svg" xmlns:xlink="http://www.w3.org/1999/xlink" x="0px" y="0px"
	 viewBox="0 0 369.557 145.613" style="enable-background:new 0 0 369.557 145.613;" xml:space="preserve">
<style type="text/css">
	.st0{fill:#FFFFFF;}
	.st1{fill:#FDD000;}
</style>
<path class="st0" d="M109.705,129.588V37.61h20.866v91.977H109.705z M238.666,37.616h-22.353v49.347l-69.9-56.025v98.638h22.353
	V79.827l69.9,56.085V37.616z M346.349,129.862v-22.353h-49.347l56.025-69.9H254.39v22.353h49.748l-56.085,69.9H346.349z
	 M48.34,37.696H17.569v91.853H48.34c25.26,0,45.927-20.667,45.927-45.927v0C94.267,58.363,73.6,37.696,48.34,37.696z M73.233,83.689
	c0,14.881-12.35,26.944-27.584,26.944h-8.016V56.744h8.016C60.883,56.744,73.233,68.808,73.233,83.689L73.233,83.689z"/>
<polygon class="st1" points="146.394,8.976 109.704,19.327 109.704,35.459 146.394,25.108 "/>
</svg>
